<svg version="1.1" xmlns="http://www.w3.org/2000/svg" xmlns:xlink="http://www.w3.org/1999/xlink" x="0px" y="0px"
	 width="512px" height="512px" viewBox="0 0 512 512" enable-background="new 0 0 512 512" xml:space="preserve">
<path fill="#fff" d="M404.526,161.689c-1.612-1.465-4.328-2.187-8.097-2.187h-58.584c-3.863,0-6.619,0.722-8.211,2.187
	c-1.542,1.448-2.361,3.369-2.361,5.756c0,2.384,0.841,4.305,2.473,5.75c1.609,1.469,4.33,2.189,8.1,2.189h29.292v182.284
	L259.391,175.385h20.354c3.771,0,6.488-0.721,8.102-2.189c1.622-1.445,2.472-3.366,2.472-5.75c0-2.387-0.954-4.419-2.865-6.049
	c-1.369-1.256-3.937-1.894-7.708-1.894h-29.718h-41.559H105v54.595c0,3.78,0.759,6.485,2.277,8.124
	c1.491,1.641,3.399,2.446,5.651,2.446c2.399,0,4.356-0.806,5.859-2.446c1.506-1.639,2.265-4.344,2.265-8.124v-38.713h87.416h21.359
	v83.191H182.78v-17.952c0-3.769-0.759-6.484-2.274-8.124c-1.518-1.64-3.469-2.446-5.849-2.446c-2.276,0-4.161,0.807-5.677,2.446
	c-1.518,1.64-2.265,4.355-2.265,8.124v51.757c0,3.766,0.748,6.482,2.265,8.141c1.517,1.621,3.401,2.429,5.677,2.429
	c2.38,0,4.332-0.808,5.849-2.429c1.516-1.658,2.274-4.375,2.274-8.141v-17.938h47.047v90.198h-13.236
	c-3.888,0-6.675,0.749-8.294,2.19c-1.638,1.445-2.471,3.34-2.471,5.737c0,2.272,0.833,4.161,2.471,5.68
	c1.62,1.518,4.407,2.248,8.294,2.248h58.39c3.87,0,6.655-0.73,8.305-2.248c1.627-1.519,2.436-3.407,2.436-5.68
	c0-2.397-0.809-4.292-2.436-5.737c-1.649-1.441-4.435-2.19-8.305-2.19h-29.292V182.751l116.92,197.746h20.384V175.385h13.437
	c3.769,0,6.484-0.721,8.097-2.189c1.66-1.445,2.474-3.366,2.474-5.75C407,165.059,406.187,163.138,404.526,161.689z"/>
<g>
	<path fill="#fff" d="M256,456c-110.28,0-200-89.72-200-200S145.72,56,256,56s200,89.72,200,200S366.28,456,256,456z M256,72
		C154.542,72,72,154.542,72,256s82.542,184,184,184s184-82.542,184-184S357.458,72,256,72z"/>
</g>
</svg>
