<svg version="1.1" xmlns="http://www.w3.org/2000/svg" xmlns:xlink="http://www.w3.org/1999/xlink" x="0px" y="0px" width="512px" height="512px" viewBox="0 0 512 512" enable-background="new 0 0 512 512" xml:space="preserve" role="img">
  <title>Felipe Nogueira 3D</title>
  <circle fill="#009688" r="250" cy="256" cx="256" />
  <g transform="matrix(1.0222222,0,0,1.0222222,-5.1570731,-3.5032597)">
    <path fill="#fff" d="m 422.5714,147.76202 c -1.8133,-1.64813 -4.86869,-2.46038 -9.109,-2.46038 h -65.90715 c -4.34563,0 -7.44614,0.81225 -9.23715,2.46038 -1.73493,1.62899 -2.65626,3.79012 -2.65626,6.47549 0,2.682 0.94626,4.84313 2.78227,6.46875 1.81014,1.65263 4.87126,2.46263 9.11229,2.46263 h 32.95348 v 205.0695 L 259.29469,163.17001 h 22.89829 c 4.24239,0 7.29886,-0.81112 9.11468,-2.46262 1.82474,-1.62563 2.78107,-3.78675 2.78107,-6.46875 0,-2.68538 -1.07348,-4.97138 -3.22334,-6.80513 -1.54014,-1.41299 -4.42894,-2.13075 -8.67128,-2.13075 H 248.76133 202.0074 85.604751 v 61.41938 c 0,4.2525 0.85398,7.29562 2.5617,9.1395 1.67729,1.84612 3.82392,2.75175 6.35729,2.75175 2.69892,0 4.90039,-0.90675 6.591389,-2.75175 1.69424,-1.84388 2.54804,-4.887 2.54804,-9.1395 v -43.55213 h 98.34316 24.0288 v 93.58988 h -52.92761 v -20.196 c 0,-4.24012 -0.85398,-7.2945 -2.55841,-9.1395 -1.70778,-1.845 -3.90266,-2.75175 -6.5803,-2.75175 -2.56027,0 -4.68109,0.90788 -6.38629,2.75175 -1.7079,1.845 -2.54827,4.89938 -2.54827,9.1395 v 58.22662 c 0,4.23676 0.84144,7.29226 2.54827,9.15863 1.70629,1.82363 3.82602,2.73263 6.38629,2.73263 2.67764,0 4.87359,-0.909 6.5803,-2.73263 1.70551,-1.86525 2.55841,-4.92187 2.55841,-9.15863 v -20.18024 h 52.92761 v 101.47275 h -14.89044 c -4.374,0 -7.50932,0.84262 -9.33088,2.46375 -1.84285,1.62562 -2.7797,3.75749 -2.7797,6.45412 0,2.556 0.93685,4.68113 2.7797,6.39 1.82264,1.70775 4.95797,2.529 9.33088,2.529 h 65.68885 c 4.35356,0 7.48683,-0.82125 9.34286,-2.529 1.83044,-1.70887 2.74039,-3.83287 2.74039,-6.39 0,-2.69662 -0.90995,-4.8285 -2.74039,-6.45412 -1.85495,-1.62113 -4.9893,-2.46375 -9.34286,-2.46375 H 243.87981 V 171.45677 l 131.535,222.46425 h 22.93203 V 163.17001 h 15.11682 c 4.24007,0 7.29444,-0.81112 9.109,-2.46262 1.86747,-1.62563 2.78311,-3.78675 2.78311,-6.46875 -0.001,-2.68538 -0.91564,-4.8465 -2.78437,-6.47662 z" />
  </g>
  <g transform="matrix(1.125,0,0,1.125,-32.520249,-34.13811)">
    <path fill="#fff" d="M 256,456 C 145.72,456 56,366.28 56,256 56,145.72 145.72,56 256,56 c 110.28,0 200,89.72 200,200 0,110.28 -89.72,200 -200,200 z M 256,72 C 154.542,72 72,154.542 72,256 72,357.458 154.542,440 256,440 357.458,440 440,357.458 440,256 440,154.542 357.458,72 256,72 Z" />
  </g>
</svg>
