<?xml version="1.0" standalone="no"?>
<!DOCTYPE svg PUBLIC "-//W3C//DTD SVG 20010904//EN"
 "http://www.w3.org/TR/2001/REC-SVG-20010904/DTD/svg10.dtd">
<svg version="1.0" xmlns="http://www.w3.org/2000/svg"
 width="700.000000pt" height="700.000000pt" viewBox="0 0 700.000000 700.000000"
 preserveAspectRatio="xMidYMid meet">
<metadata>
Created by potrace 1.11, written by Peter Selinger 2001-2013
</metadata>
<g transform="translate(0.000000,700.000000) scale(0.100000,-0.100000)"
fill="#000000" stroke="none">
<path d="M3315 6914 c-407 -31 -721 -99 -1056 -229 -1029 -400 -1806 -1283
-2074 -2354 -199 -793 -107 -1629 258 -2357 346 -690 891 -1224 1590 -1558
469 -225 935 -330 1467 -330 532 0 998 105 1467 330 840 401 1474 1114 1770
1989 122 360 176 697 177 1090 0 238 -11 375 -45 574 -182 1077 -868 2002
-1844 2489 -362 181 -724 288 -1138 338 -121 14 -475 25 -572 18z m485 -325
c732 -67 1451 -427 1956 -980 640 -700 922 -1637 773 -2569 -169 -1059 -893
-1963 -1894 -2365 -799 -321 -1700 -291 -2476 84 -466 225 -896 591 -1191
1016 -268 386 -447 834 -519 1305 -27 174 -37 545 -20 727 82 870 520 1655
1218 2181 223 169 547 344 808 437 424 152 872 207 1345 164z"/>
<path d="M3250 6349 c-1062 -93 -1986 -779 -2383 -1769 -140 -348 -200 -665
-200 -1050 0 -480 100 -889 319 -1309 136 -261 286 -464 509 -687 455 -456
1001 -725 1655 -815 124 -17 554 -18 680 -1 505 68 965 252 1348 542 619 467
998 1104 1119 1880 25 164 25 616 0 780 -118 753 -489 1392 -1072 1845 -559
434 -1273 645 -1975 584z m727 -1352 c63 -34 82 -128 36 -179 -37 -42 -72 -48
-269 -48 -155 0 -185 -2 -181 -14 7 -19 1667 -2828 1678 -2840 5 -6 9 616 9
1422 l0 1432 -260 0 c-276 0 -304 4 -344 48 -10 12 -20 40 -23 64 -6 58 26
108 82 124 49 15 1008 19 1070 4 58 -13 95 -58 95 -116 0 -100 -45 -124 -235
-124 l-135 0 -2 -1612 -3 -1613 -157 -3 -157 -3 -25 38 c-13 21 -419 706 -901
1523 -482 817 -885 1499 -896 1515 -18 29 -19 5 -19 -1397 l0 -1428 260 0
c202 0 268 -3 295 -14 62 -26 89 -98 60 -160 -35 -73 -16 -71 -615 -71 -498 0
-537 1 -568 18 -61 33 -79 130 -35 180 34 38 75 47 218 47 l135 0 0 710 0 710
-370 0 -370 0 0 -157 c0 -87 -5 -175 -11 -197 -30 -108 -162 -128 -219 -34
-19 32 -20 51 -20 513 0 462 1 481 20 513 57 94 189 74 219 -34 6 -22 11 -110
11 -196 l0 -158 370 0 370 0 0 655 0 655 -855 0 -855 0 0 -322 c0 -344 -5
-385 -47 -424 -54 -50 -144 -36 -183 28 -19 32 -20 49 -20 501 l0 467 1408 -2
c1323 -3 1409 -4 1439 -21z"/>
</g>
</svg>
